<svg width="20" height="23" viewBox="0 0 20 23" fill="none" xmlns="http://www.w3.org/2000/svg">
<path d="M15.8125 9.20624C12.9625 3.07249 11.48 0.742492 6.82378 0.839992C5.16503 0.873742 5.56253 -0.362508 4.29753 0.106242C3.03503 0.574992 4.11878 1.26124 2.82628 2.32249C-0.801216 5.30124 -0.467466 8.05624 1.21503 14.6225C1.92378 17.3887 -0.493716 17.5237 0.462534 20.2037C1.16128 22.1587 6.31128 22.9775 11.7438 20.9625C17.1775 18.9462 20.6013 14.945 19.9025 12.99C18.9463 10.3087 17.0138 11.7887 15.8125 9.20624ZM11.155 19.31C6.30253 21.11 2.31503 20.0525 2.14628 19.5812C1.85628 18.7687 3.71253 16.0612 9.26003 14.0025C14.8075 11.9437 17.9038 12.7075 18.2275 13.6137C18.4188 14.15 16.0088 17.5087 11.155 19.31ZM9.59503 14.9425C7.05878 15.8837 5.29628 16.96 4.15378 17.9287C4.95753 18.6587 6.46253 18.8362 7.96128 18.28C9.87003 17.5737 11.0438 15.9475 10.58 14.65L10.56 14.605C10.2467 14.7067 9.92503 14.8192 9.59503 14.9425Z" fill="#026BB1"/>
</svg>
